<?xml version="1.0" standalone="no"?>
<!DOCTYPE svg PUBLIC "-//W3C//DTD SVG 20010904//EN"
 "http://www.w3.org/TR/2001/REC-SVG-20010904/DTD/svg10.dtd">
<svg version="1.0" xmlns="http://www.w3.org/2000/svg"
 width="256.000000pt" height="256.000000pt" viewBox="0 0 256.000000 256.000000"
 preserveAspectRatio="xMidYMid meet">
<metadata>
Created by potrace 1.14, written by Peter Selinger 2001-2017
</metadata>
<g transform="translate(0.000000,256.000000) scale(0.100000,-0.100000)"
fill="#000000" stroke="none">
<path d="M1208 2416 c-24 -13 -283 -197 -576 -410 -374 -272 -540 -399 -558
-425 -49 -75 -41 -190 18 -257 79 -89 208 -102 302 -30 l36 27 0 -128 0 -128
-93 0 c-79 0 -100 -4 -147 -26 -69 -33 -122 -87 -158 -158 -23 -48 -27 -68
-26 -141 1 -103 25 -161 94 -230 72 -73 127 -95 238 -95 85 0 92 -2 93 -20 1
-36 7 -56 34 -110 28 -59 72 -103 138 -137 l42 -23 655 0 655 0 42 23 c66 35
110 79 140 140 l28 57 3 488 3 487 32 -24 c45 -35 84 -47 143 -47 167 0 270
196 177 338 -14 21 -65 63 -165 135 -12 9 -72 53 -133 97 -60 44 -125 90 -143
103 -18 13 -52 37 -75 54 -84 62 -223 163 -252 184 -16 12 -53 38 -81 58 -27
20 -61 45 -75 54 -13 10 -58 43 -99 74 -101 75 -124 86 -191 90 -46 2 -67 -2
-101 -20z m-917 -1636 c23 -13 25 -47 2 -72 -20 -22 -41 -23 -65 -1 -21 19
-23 36 -6 63 14 22 39 26 69 10z"/>
</g>
</svg>
